<?xml version="1.0" encoding="iso-8859-1"?>
<!-- Generator: Adobe Illustrator 18.1.1, SVG Export Plug-In . SVG Version: 6.00 Build 0)  -->
<svg xmlns="http://www.w3.org/2000/svg" xmlns:xlink="http://www.w3.org/1999/xlink" version="1.1" id="Capa_1" x="0px" y="0px" viewBox="0 0 563.65 563.65" style="enable-background:new 0 0 563.65 563.65;" xml:space="preserve" width="512px" height="512px">
<g>
	<g>
		<path d="M415.241,324.971c12.646-12.648,22.134-26.931,28.458-42.843    c6.321-15.912,9.483-32.13,9.483-48.654s-3.161-32.844-9.483-48.96c-6.324-16.116-15.813-30.498-28.458-43.146    c-12.648-12.648-26.931-22.032-42.84-28.152c-15.912-6.12-32.232-9.18-48.96-9.18c-16.729,0-33.051,3.06-48.96,9.18    c-15.912,6.12-30.192,15.504-42.84,28.152s-22.134,27.03-28.458,43.146s-9.486,32.436-9.486,48.96s3.162,32.742,9.486,48.654    c6.324,15.912,15.81,30.192,28.458,42.843c12.648,12.646,26.928,22.134,42.84,28.458c15.912,6.321,32.232,9.483,48.96,9.483    s33.048-3.162,48.96-9.483C388.313,347.104,402.593,337.618,415.241,324.971z M488.681,67.93    c22.851,22.848,39.984,48.654,51.408,77.418s17.136,58.038,17.136,87.822c0,29.784-5.712,59.058-17.136,87.822    s-28.56,54.57-51.408,77.418c-18.357,18.36-38.76,33.048-61.2,44.064c-22.438,11.016-45.693,18.357-69.768,22.029    c-24.072,3.675-48.246,3.471-72.521-0.609c-24.276-4.08-47.433-11.832-69.462-23.256L110.465,545.902    c-6.12,6.12-12.852,10.605-20.196,13.464c-7.344,2.856-14.994,4.284-22.95,4.284s-15.606-1.428-22.95-4.284    c-7.344-2.856-14.076-7.344-20.196-13.464s-10.608-12.852-13.464-20.196s-4.284-14.994-4.284-22.95s1.428-15.604,4.284-22.947    c2.856-7.347,7.344-14.076,13.464-20.196l101.592-101.592c-14.28-22.44-24.276-46.515-29.988-72.218    c-5.712-25.705-7.242-51.409-4.59-77.11c2.652-25.704,9.588-50.694,20.808-74.97s26.622-46.206,46.206-65.79    c22.848-22.44,48.654-39.372,77.418-50.796C264.383,5.712,293.657,0,323.442,0c29.781,0,59.058,5.712,87.819,17.136    C440.028,28.558,465.833,45.49,488.681,67.93z" fill="#AEAEAE"/>
	</g>
</g>
<g>
</g>
<g>
</g>
<g>
</g>
<g>
</g>
<g>
</g>
<g>
</g>
<g>
</g>
<g>
</g>
<g>
</g>
<g>
</g>
<g>
</g>
<g>
</g>
<g>
</g>
<g>
</g>
<g>
</g>
</svg>
